<svg
            xmlns="http://www.w3.org/2000/svg"
            version="1.0"
            width="10.000000pt"
            height="10.000000pt"
            viewBox="0 0 512.000000 512.000000"
            preserveAspectRatio="xMidYMid meet"
          >
            <g
              transform="translate(0.000000,512.000000) scale(0.100000,-0.100000)"
              fill="#0c30e1"
              stroke="none"
            >
              <path
                d="M445 4308 c-27 -5 -86 -27 -131 -48 -111 -54 -200 -142 -253 -253 -51 -106 -61 -165 -61 -368 0 -139 3 -170 16 -183 14 -14 259 -16 2544 -16 2285 0 2530 2 2544 16 13 13 16 44 16 183 0 203 -10 262 -61 368 -73 152 -230 273 -393 302 -77 14 -4147 13 -4221 -1z"
                fill="#0c30e1"
              />
              <path
                d="M16 3104 c-14 -14 -16 -109 -16 -903 0 -586 4 -907 11 -947 18 -99 79 -213 156 -289 76 -76 190 -137 287 -154 83 -15 4129 -15 4212 0 99 18 213 79 289 156 76 76 137 190 154 287 7 40 11 361 11 947 0 794 -2 889 -16 903 -14 14 -259 16 -2544 16 -2285 0 -2530 -2 -2544 -16z m1190 -1050 c64 -47 69 -63 69 -214 0 -124 -2 -141 -21 -166 -47 -64 -63 -69 -214 -69 -124 0 -141 2 -166 21 -60 44 -69 66 -72 186 -5 135 1 168 35 209 44 52 73 59 215 57 110 -3 130 -6 154 -24z"
                fill="#0c30e1"
              />
            </g>
          </svg>