<?xml version="1.0" standalone="no"?>
<!DOCTYPE svg PUBLIC "-//W3C//DTD SVG 20010904//EN"
 "http://www.w3.org/TR/2001/REC-SVG-20010904/DTD/svg10.dtd">
<svg version="1.0" xmlns="http://www.w3.org/2000/svg"
 width="512.000000pt" height="512.000000pt" viewBox="0 0 512.000000 512.000000"
 preserveAspectRatio="xMidYMid meet">

<g transform="translate(0.000000,512.000000) scale(0.100000,-0.100000)"
fill="#000000" stroke="none">
<path d="M2322 5110 c-395 -38 -783 -170 -1121 -381 -136 -85 -161 -110 -161
-161 0 -30 7 -46 29 -69 39 -39 88 -39 144 0 294 201 615 330 978 392 176 30
532 33 704 6 304 -47 578 -141 831 -286 161 -92 150 -78 125 -153 -62 -190
-21 -370 118 -509 74 -73 159 -121 249 -140 75 -15 193 -6 262 20 30 11 57 17
61 13 19 -21 97 -161 144 -257 102 -212 173 -441 211 -685 25 -162 25 -509 0
-675 -81 -536 -323 -1003 -710 -1373 -358 -341 -792 -552 -1291 -628 -167 -26
-503 -26 -670 0 -333 50 -652 168 -924 341 -91 58 -271 190 -271 199 0 2 11
29 25 59 58 131 56 260 -6 387 -85 170 -277 271 -458 240 -112 -20 -100 -26
-157 90 -100 204 -173 442 -210 685 -25 165 -25 513 0 675 51 328 167 643 340
920 36 58 66 113 66 123 0 35 -31 79 -66 93 -65 27 -99 3 -182 -131 -88 -142
-198 -379 -251 -541 -82 -249 -118 -452 -128 -719 -14 -419 69 -816 253 -1196
l66 -137 -30 -45 c-125 -181 -102 -419 56 -569 65 -62 110 -88 196 -113 81
-24 190 -17 273 17 l62 25 86 -68 c308 -247 697 -428 1093 -508 650 -132 1348
2 1896 363 902 593 1331 1646 1104 2706 -49 233 -176 546 -310 768 -50 84 -51
85 -34 111 40 61 76 151 88 219 30 180 -59 383 -215 483 -115 74 -274 102
-397 69 -42 -11 -135 -56 -171 -82 -13 -9 -33 0 -109 46 -304 189 -634 309
-995 362 -122 18 -466 26 -593 14z m2113 -555 c106 -48 169 -144 169 -260 1
-115 -57 -210 -158 -263 -70 -37 -189 -38 -256 -3 -62 32 -107 77 -138 136
-36 69 -38 179 -4 246 56 115 179 186 297 172 22 -3 63 -15 90 -28z m-3675
-3325 c106 -54 159 -171 126 -281 -39 -135 -173 -207 -310 -167 -59 18 -138
99 -155 161 -47 166 90 330 259 310 24 -3 60 -13 80 -23z"/>
<path d="M729 4361 c-49 -49 -35 -126 28 -156 85 -41 169 43 128 128 -30 63
-107 77 -156 28z"/>
<path d="M2410 4289 c-211 -17 -445 -83 -633 -178 l-113 -58 -35 24 c-82 56
-205 82 -304 64 -305 -56 -456 -380 -304 -649 l30 -53 -39 -72 c-91 -167 -154
-361 -187 -572 -24 -151 -16 -455 15 -600 46 -217 168 -513 226 -552 43 -28
92 -22 125 15 40 45 37 74 -20 189 -61 122 -103 239 -133 374 -20 91 -23 130
-23 319 0 171 4 233 18 300 28 129 74 264 128 377 l49 102 42 -15 c195 -70
432 26 526 212 54 108 64 228 28 332 -18 50 -19 49 105 106 410 189 893 187
1309 -6 342 -159 634 -466 777 -818 90 -221 118 -390 110 -650 -8 -247 -48
-410 -155 -628 -40 -81 -49 -93 -66 -87 -12 3 -52 13 -91 22 -189 44 -391 -59
-478 -244 -39 -85 -49 -207 -23 -296 9 -30 16 -58 16 -61 0 -11 -156 -84 -247
-115 -184 -63 -265 -75 -503 -75 -184 0 -229 3 -313 22 -138 31 -260 73 -378
133 -124 62 -160 65 -201 20 -35 -39 -37 -87 -6 -126 49 -62 350 -183 564
-226 137 -27 401 -37 541 -20 198 24 404 86 583 176 l86 43 80 -40 c67 -33 94
-41 160 -45 129 -9 236 30 331 119 99 95 138 194 131 339 -4 76 -9 97 -41 162
l-37 74 60 115 c66 127 128 302 160 453 17 75 23 149 27 300 5 176 3 216 -17
330 -136 806 -794 1406 -1609 1465 -140 10 -137 10 -271 -1z m-913 -368 c140
-71 174 -255 67 -365 -47 -49 -86 -67 -154 -73 -203 -19 -328 228 -193 378 78
87 185 109 280 60z m2332 -2358 c70 -44 104 -100 109 -179 6 -86 -16 -141 -74
-192 -110 -97 -262 -77 -349 47 -28 39 -30 49 -30 126 0 76 2 87 30 126 17 23
42 51 56 61 74 55 179 60 258 11z"/>
<path d="M2450 3469 c-305 -35 -589 -236 -725 -514 -66 -135 -86 -217 -92
-376 -8 -208 31 -361 135 -529 119 -193 311 -337 539 -407 80 -24 102 -27 253
-27 151 0 173 3 253 27 329 101 562 341 653 672 29 107 27 361 -4 468 -80 277
-261 489 -516 607 -100 46 -175 66 -291 80 -100 11 -99 11 -205 -1z m299 -220
c129 -34 224 -91 327 -193 74 -75 99 -108 136 -183 63 -126 82 -214 76 -361
-9 -200 -70 -342 -208 -483 -133 -135 -291 -207 -476 -216 -120 -7 -212 7
-313 48 -204 81 -360 248 -428 454 -20 61 -27 108 -31 197 -6 147 13 235 76
361 85 171 262 319 447 373 127 37 261 38 394 3z"/>
<path d="M2493 2926 c-28 -24 -28 -26 -31 -155 l-4 -131 -125 0 c-124 0 -125
0 -154 -29 -49 -49 -35 -128 28 -160 12 -6 72 -11 137 -11 l116 0 0 -115 c0
-128 10 -163 55 -183 33 -15 57 -15 90 0 45 20 55 55 55 183 l0 115 116 0 c65
0 125 5 137 11 63 32 77 111 28 160 -29 29 -30 29 -154 29 l-125 0 -4 131 c-3
129 -3 131 -31 155 -19 16 -40 24 -67 24 -27 0 -48 -8 -67 -24z"/>
<path d="M1332 1435 c-57 -47 -44 -133 23 -161 101 -42 183 80 106 157 -38 38
-87 39 -129 4z"/>
</g>
</svg>
