<svg
            xmlns="http://www.w3.org/2000/svg"
            version="1.0"
            width="10.000000pt"
            height="10.000000pt"
            viewBox="0 0 512.000000 512.000000"
            preserveAspectRatio="xMidYMid meet"
          >
            <g
              transform="translate(0.000000,512.000000) scale(0.100000,-0.100000)"
              fill="#0c30e1"
              stroke="none"
            >
              <path
                d="M4220 4773 c-78 -8 -252 -36 -370 -60 -616 -122 -1108 -329 -1465 -616 -150 -121 -443 -443 -552 -608 -19 -30 -31 -38 -47 -34 -104 23 -403 56 -471 53 -137 -7 -133 -4 -572 -441 -457 -456 -448 -443 -448 -602 0 -88 3 -107 27 -157 34 -73 113 -152 182 -183 41 -18 130 -35 377 -70 178 -25 333 -47 344 -50 11 -3 34 -28 50 -57 20 -35 130 -154 320 -344 252 -253 316 -311 413 -370 2 -1 26 -156 53 -344 33 -234 55 -356 69 -387 83 -187 310 -274 496 -189 51 23 108 76 441 408 437 437 444 446 451 583 2 54 -6 146 -27 285 -16 113 -27 208 -23 211 4 3 57 43 117 89 487 370 737 703 947 1265 123 328 248 884 248 1103 0 151 -50 270 -154 370 -108 104 -265 160 -406 145z m-808 -1176 c142 -70 228 -198 236 -353 12 -226 -133 -408 -357 -446 -237 -41 -470 142 -488 384 -15 203 104 379 302 445 25 8 76 12 136 10 88 -2 103 -6 171 -40z"
                fill="#0c30e1"
              />
              <path
                d="M745 1851 c-24 -11 -108 -87 -207 -187 -132 -135 -169 -177 -178 -211 -43 -145 113 -258 241 -174 57 38 331 316 353 358 68 133 -75 279 -209 214z"
                fill="#0c30e1"
              />
              <path
                d="M1215 1405 c-30 -11 -116 -91 -371 -347 -293 -293 -333 -338 -340 -371 -21 -117 90 -220 201 -187 33 10 96 67 363 333 178 177 330 334 338 349 22 42 18 119 -9 158 -42 63 -115 89 -182 65z"
                fill="#0c30e1"
              />
              <path
                d="M1645 944 c-42 -21 -352 -332 -370 -370 -60 -127 55 -264 188 -224 34 10 76 46 219 189 148 148 178 183 187 219 21 77 -11 152 -80 187 -36 19 -106 19 -144 -1z"
                fill="#0c30e1"
              />
            </g>
          </svg>